<svg width="140" height="32" viewBox="0 0 140 32" fill="none" xmlns="http://www.w3.org/2000/svg">
  <g>
    <!-- Sprout Icon -->
    <path d="M2 14C2 10.6863 4.68629 8 8 8H16C19.3137 8 22 10.6863 22 14V18C22 21.3137 19.3137 24 16 24H8C4.68629 24 2 21.3137 2 18V14Z" fill="currentColor" fillOpacity="0.1"/>
    <path d="M12.0101 12.0169C11.6692 12.0169 11.3915 12.2946 11.3915 12.6354C11.3915 12.9763 11.6692 13.254 12.0101 13.254C12.351 13.254 12.6287 12.9763 12.6287 12.6354C12.6287 12.2946 12.351 12.0169 12.0101 12.0169Z" fill="currentColor"/>
    <path fillRule="evenodd" clipRule="evenodd" d="M12.0102 14.491C11.7869 14.491 11.5811 14.6027 11.4382 14.7815C10.8792 15.4872 9.67847 17.0963 9.67847 18.4937C9.67847 19.8911 10.7397 21.0242 12.0102 21.0242C13.2807 21.0242 14.3419 19.8911 14.3419 18.4937C14.3419 17.0963 13.1412 15.4872 12.5822 14.7815C12.4393 14.6027 12.2335 14.491 12.0102 14.491ZM10.7732 14.0169C11.0979 13.6024 11.5378 13.3737 12.0102 13.3737C12.4826 13.3737 12.9225 13.6024 13.2472 14.0169C13.8431 14.7661 15.1605 16.5048 15.1605 18.4937C15.1605 20.3457 13.7623 21.8445 12.0102 21.8445C10.2581 21.8445 8.85986 20.3457 8.85986 18.4937C8.85986 16.5048 10.1773 14.7661 10.7732 14.0169Z" fill="currentColor"/>
    
    <!-- Sporecast Text -->
    <text x="32" y="20" fill="currentColor" fontFamily="Inter" fontSize="16" fontWeight="600">SPORECAST</text>
  </g>
</svg>