<svg width="24" height="24" viewBox="0 0 24 24" fill="none" xmlns="http://www.w3.org/2000/svg">
  <path d="M2 10C2 6.68629 4.68629 4 8 4H16C19.3137 4 22 6.68629 22 10V14C22 17.3137 19.3137 20 16 20H8C4.68629 20 2 17.3137 2 14V10Z" fill="currentColor" fillOpacity="0.1"/>
  <path d="M12.0101 8.01685C11.6692 8.01685 11.3915 8.29455 11.3915 8.63543C11.3915 8.97631 11.6692 9.25401 12.0101 9.25401C12.351 9.25401 12.6287 8.97631 12.6287 8.63543C12.6287 8.29455 12.351 8.01685 12.0101 8.01685Z" fill="currentColor"/>
  <path fillRule="evenodd" clipRule="evenodd" d="M12.0102 10.491C11.7869 10.491 11.5811 10.6027 11.4382 10.7815C10.8792 11.4872 9.67847 13.0963 9.67847 14.4937C9.67847 15.8911 10.7397 17.0242 12.0102 17.0242C13.2807 17.0242 14.3419 15.8911 14.3419 14.4937C14.3419 13.0963 13.1412 11.4872 12.5822 10.7815C12.4393 10.6027 12.2335 10.491 12.0102 10.491ZM10.7732 10.0169C11.0979 9.60236 11.5378 9.37366 12.0102 9.37366C12.4826 9.37366 12.9225 9.60236 13.2472 10.0169C13.8431 10.7661 15.1605 12.5048 15.1605 14.4937C15.1605 16.3457 13.7623 17.8445 12.0102 17.8445C10.2581 17.8445 8.85986 16.3457 8.85986 14.4937C8.85986 12.5048 10.1773 10.7661 10.7732 10.0169Z" fill="currentColor"/>
</svg>